<svg version="1.1" id="Layer_1" xmlns="http://www.w3.org/2000/svg" xmlns:xlink="http://www.w3.org/1999/xlink" x="0px" y="0px"
	 width="100%" viewBox="0 0 512 512" enable-background="new 0 0 512 512" xml:space="preserve">
<path fill="#FFFFFF" opacity="1.000000" stroke="none" 
	d="
M270.000000,513.000000 
	C180.021835,513.000000 90.543671,513.000000 1.032752,513.000000 
	C1.032752,342.396820 1.032752,171.793610 1.032752,1.095206 
	C171.561523,1.095206 342.123108,1.095206 512.842346,1.095206 
	C512.842346,171.666550 512.842346,342.333252 512.842346,513.000000 
	C432.126923,513.000000 351.313446,513.000000 270.000000,513.000000 
M359.500000,461.000000 
	C257.422791,461.000000 155.345612,461.000000 53.000000,461.000000 
	C53.000000,458.845856 53.000000,457.205322 53.000000,455.564758 
	C53.000000,417.740662 53.000004,379.916565 53.000000,342.092468 
	C52.999996,327.432251 45.431988,320.451569 30.674095,319.814575 
	C22.090763,319.444122 11.753854,330.123413 11.819028,338.575745 
	C12.191604,386.894409 11.993955,435.217407 12.005001,483.538940 
	C12.007264,493.435577 20.465347,501.992676 30.279579,501.993286 
	C181.409348,502.002930 332.539124,502.002655 483.668884,501.993835 
	C493.509979,501.993256 501.991882,493.467194 501.994415,483.590485 
	C502.006775,435.268951 502.006317,386.947418 501.972076,338.625916 
	C501.970947,337.030273 501.772278,335.368591 501.302399,333.850128 
	C498.108368,323.527374 488.018127,317.961334 476.387177,320.009033 
	C468.062622,321.474609 461.001709,330.658875 461.001068,340.041443 
	C460.998444,378.532043 461.000000,417.022675 461.000000,455.513275 
	C461.000000,457.276367 461.000000,459.039490 461.000000,461.000000 
	C427.109344,461.000000 393.804688,461.000000 359.500000,461.000000 
M213.500000,106.000000 
	C220.664047,98.836609 227.828094,91.673218 234.992142,84.509827 
	C235.328094,84.791130 235.664047,85.072433 236.000000,85.353737 
	C236.000000,109.158073 236.000000,132.962418 236.000000,156.766754 
	C236.000000,218.082321 235.990372,279.397888 236.008575,340.713440 
	C236.011993,352.221100 246.602493,363.143982 257.350769,361.865234 
	C268.687744,360.516541 277.863556,355.070740 277.900970,339.980347 
	C278.107880,256.505066 278.000000,173.028992 278.000000,89.553185 
	C278.000000,87.817131 278.000000,86.081085 278.000000,84.345032 
	C280.223145,85.267944 281.268738,86.745216 282.529449,88.007660 
	C309.608582,115.124023 336.757324,142.171066 363.777496,169.346008 
	C370.312927,175.918884 377.996002,178.925140 386.862610,176.515976 
	C402.990662,172.133789 407.478882,153.001587 395.443878,140.951996 
	C354.939575,100.398705 314.395111,59.885487 273.862701,19.360254 
	C263.602539,9.101901 250.432007,9.069592 240.231567,19.269167 
	C199.936539,59.560703 159.583405,99.794609 119.462067,140.258377 
	C116.225204,143.522858 113.525558,148.102356 112.404533,152.533340 
	C109.245171,165.020966 119.707146,177.212067 131.377960,177.184692 
	C139.228531,177.166260 145.155502,174.371994 150.446304,169.067444 
	C171.272720,148.186890 192.144852,127.351906 213.500000,106.000000 
z"/>
<path fill="#000000" opacity="1.000000" stroke="none" 
	d="
M360.000000,461.000000 
	C393.804688,461.000000 427.109344,461.000000 461.000000,461.000000 
	C461.000000,459.039490 461.000000,457.276367 461.000000,455.513275 
	C461.000000,417.022675 460.998444,378.532043 461.001068,340.041443 
	C461.001709,330.658875 468.062622,321.474609 476.387177,320.009033 
	C488.018127,317.961334 498.108368,323.527374 501.302399,333.850128 
	C501.772278,335.368591 501.970947,337.030273 501.972076,338.625916 
	C502.006317,386.947418 502.006775,435.268951 501.994415,483.590485 
	C501.991882,493.467194 493.509979,501.993256 483.668884,501.993835 
	C332.539124,502.002655 181.409348,502.002930 30.279579,501.993286 
	C20.465347,501.992676 12.007264,493.435577 12.005001,483.538940 
	C11.993955,435.217407 12.191604,386.894409 11.819028,338.575745 
	C11.753854,330.123413 22.090763,319.444122 30.674095,319.814575 
	C45.431988,320.451569 52.999996,327.432251 53.000000,342.092468 
	C53.000004,379.916565 53.000000,417.740662 53.000000,455.564758 
	C53.000000,457.205322 53.000000,458.845856 53.000000,461.000000 
	C155.345612,461.000000 257.422791,461.000000 360.000000,461.000000 
z"/>
<path fill="#000000" opacity="1.000000" stroke="none" 
	d="
M213.250000,106.250000 
	C192.144852,127.351906 171.272720,148.186890 150.446304,169.067444 
	C145.155502,174.371994 139.228531,177.166260 131.377960,177.184692 
	C119.707146,177.212067 109.245171,165.020966 112.404533,152.533340 
	C113.525558,148.102356 116.225204,143.522858 119.462067,140.258377 
	C159.583405,99.794609 199.936539,59.560703 240.231567,19.269167 
	C250.432007,9.069592 263.602539,9.101901 273.862701,19.360254 
	C314.395111,59.885487 354.939575,100.398705 395.443878,140.951996 
	C407.478882,153.001587 402.990662,172.133789 386.862610,176.515976 
	C377.996002,178.925140 370.312927,175.918884 363.777496,169.346008 
	C336.757324,142.171066 309.608582,115.124023 282.529449,88.007660 
	C281.268738,86.745216 280.223145,85.267944 278.000000,84.345032 
	C278.000000,86.081085 278.000000,87.817131 278.000000,89.553185 
	C278.000000,173.028992 278.107880,256.505066 277.900970,339.980347 
	C277.863556,355.070740 268.687744,360.516541 257.350769,361.865234 
	C246.602493,363.143982 236.011993,352.221100 236.008575,340.713440 
	C235.990372,279.397888 236.000000,218.082321 236.000000,156.766754 
	C236.000000,132.962418 236.000000,109.158073 236.000000,85.353737 
	C235.664047,85.072433 235.328094,84.791130 234.992142,84.509827 
	C227.828094,91.673218 220.664047,98.836609 213.250000,106.250000 
z"/>
</svg>